<svg width="133" height="36" viewBox="0 0 133 36" fill="none" xmlns="http://www.w3.org/2000/svg">
<g clip-path="url(#clip0_120_7)">
<path d="M126.135 33.6288C126.641 33.6288 127.061 33.564 127.412 33.4656C128.443 33.4752 129.473 33.48 130.504 33.4896C133.793 33.5232 133.85 31.116 130.551 31.0848C87.8264 30.6648 45.1217 30.8232 2.48863 31.5552C-0.761181 31.6104 -0.877334 33.9696 2.44167 33.96L126.135 33.6264V33.6288Z" fill="#F05D79"/>
<path d="M20.517 5.2296H6.88015V10.9704H16.941V15.9H6.88015V23.0568H21.0459V28.2864H0.921753V0H20.517V5.2296Z" fill="#143861"/>
<path d="M32.1224 6.59998C33.6522 6.59998 35.0139 6.86398 36.205 7.39198C37.3962 7.91998 38.3749 8.68558 39.141 9.68398V7.07038H44.6125V36H38.6986V26.2296C37.9325 27.06 36.9909 27.6936 35.8739 28.1376C34.7544 28.5816 33.5063 28.8024 32.1224 28.8024C30.5926 28.8024 29.179 28.524 27.8865 27.9672C26.5915 27.4104 25.4745 26.6304 24.5329 25.632C23.5913 24.6312 22.8549 23.4528 22.326 22.0968C21.7971 20.7408 21.5327 19.2624 21.5327 17.6616C21.5327 16.0608 21.7971 14.5896 22.326 13.248C22.8549 11.9064 23.5839 10.74 24.5107 9.75598C25.4374 8.76958 26.5471 7.99918 27.842 7.44238C29.137 6.88558 30.563 6.60718 32.1224 6.60718M33.1826 11.8368C32.4165 11.8368 31.6899 11.9736 30.9979 12.2448C30.306 12.516 29.7104 12.9096 29.2112 13.4232C28.7095 13.9368 28.3141 14.5584 28.02 15.288C27.7259 16.0176 27.5776 16.824 27.5776 17.7096C27.5776 18.5952 27.7234 19.4376 28.02 20.1528C28.3141 20.868 28.7194 21.4752 29.2334 21.9744C29.7474 22.4736 30.343 22.86 31.0202 23.1312C31.6973 23.4024 32.4165 23.5392 33.1826 23.5392C33.8894 23.5392 34.5715 23.4264 35.2338 23.196C35.8961 22.968 36.4843 22.6104 36.9984 22.1256C37.5124 21.6408 37.9325 21.0264 38.2563 20.2824C38.58 19.5408 38.7406 18.6696 38.7406 17.6688C38.7406 16.668 38.5775 15.7608 38.2563 15.0336C37.9325 14.304 37.505 13.704 36.9761 13.2336C36.4472 12.7632 35.8516 12.4128 35.1893 12.1824C34.527 11.9544 33.8573 11.8392 33.1826 11.8392" fill="#143861"/>
<path d="M66.5012 18.9432C66.5012 20.4576 66.2442 21.8232 65.7302 23.0352C65.2161 24.2496 64.5093 25.2864 63.6122 26.1432C62.7151 27 61.6549 27.6576 60.4341 28.1136C59.2132 28.5696 57.896 28.8 56.4849 28.8C55.0738 28.8 53.712 28.572 52.4912 28.1136C51.2704 27.6576 50.2102 27 49.3131 26.1432C48.416 25.2864 47.7092 24.252 47.1951 23.0352C46.6811 21.8208 46.4241 20.4576 46.4241 18.9432V7.07043H52.338V19.4136C52.338 20.6712 52.7359 21.6624 53.5292 22.392C54.3225 23.1216 55.3085 23.484 56.4849 23.484C57.6612 23.484 58.6028 23.1192 59.3986 22.392C60.1919 21.6624 60.5898 20.6712 60.5898 19.4136V7.07043H66.5037V18.9408L66.5012 18.9432Z" fill="#143861"/>
<path d="M79.2978 6.59998C80.8276 6.59998 82.2239 6.85678 83.4892 7.37038C84.7545 7.88398 85.8345 8.58478 86.7316 9.47038C87.6287 10.356 88.3207 11.4 88.8051 12.6C89.2894 13.8 89.5341 15.0864 89.5341 16.4568C89.5341 17.0568 89.4896 17.6424 89.4006 18.2136C89.3117 18.7848 89.2252 19.2576 89.1362 19.6272H73.7793C74.1624 20.9976 74.8964 22.0416 75.9862 22.7568C77.0736 23.472 78.4131 23.8272 80.0022 23.8272C81.1785 23.8272 82.2585 23.6352 83.2445 23.2488C84.2306 22.8624 85.1796 22.3416 86.0915 21.684L88.5184 25.6272C87.2827 26.628 85.9432 27.4056 84.5025 27.9624C83.0617 28.5192 81.5023 28.7976 79.8242 28.7976C78.1462 28.7976 76.4854 28.512 75.015 27.9408C73.5445 27.3696 72.2792 26.5848 71.219 25.584C70.1588 24.5856 69.3284 23.4144 68.7254 22.0704C68.1224 20.7288 67.8209 19.2696 67.8209 17.7C67.8209 16.1304 68.115 14.6712 68.7032 13.3296C69.2914 11.988 70.0995 10.8168 71.13 9.81598C72.1606 8.81518 73.374 8.03038 74.7703 7.45918C76.1666 6.88798 77.6742 6.60238 79.2929 6.60238M79.0729 11.2728C77.7779 11.2728 76.6609 11.652 75.7193 12.408C74.7777 13.1664 74.1303 14.2152 73.7768 15.5568H83.7957C83.7363 14.1864 83.252 13.128 82.34 12.3864C81.4281 11.6424 80.3383 11.2728 79.0754 11.2728" fill="#143861"/>
<path d="M100.581 28.8H98.6384L87.7819 7.07043H94.0937L99.5652 19.0704L105.126 7.07043H111.393L100.581 28.8Z" fill="#143861"/>
<path d="M132.81 18.9432C132.81 20.4576 132.553 21.8232 132.039 23.0352C131.525 24.2496 130.818 25.2864 129.921 26.1432C129.024 27 127.963 27.6576 126.743 28.1136C125.522 28.5696 124.204 28.8 122.793 28.8C121.382 28.8 120.021 28.572 118.8 28.1136C117.579 27.6576 116.519 27 115.622 26.1432C114.724 25.2864 114.018 24.252 113.504 23.0352C112.99 21.8208 112.733 20.4576 112.733 18.9432V7.07043H118.646V19.4136C118.646 20.6712 119.044 21.6624 119.838 22.392C120.631 23.1216 121.617 23.484 122.793 23.484C123.97 23.484 124.911 23.1192 125.707 22.392C126.5 21.6624 126.898 20.6712 126.898 19.4136V7.07043H132.812V18.9408L132.81 18.9432Z" fill="#143861"/>
</g>
<defs>
<clipPath id="clip0_120_7">
<rect width="133" height="36" fill="white"/>
</clipPath>
</defs>
</svg>
